<!-- Generated by IcoMoon.io -->
<svg version="1.1" xmlns="http://www.w3.org/2000/svg" width="32" height="32" viewBox="0 0 32 32">
<title>coding</title>
<path d="M31.673 15.177l-7.4-7.84c-0.455-0.482-1.214-0.504-1.696-0.049s-0.504 1.214-0.049 1.696l6.623 7.016-6.623 7.017c-0.455 0.482-0.433 1.241 0.049 1.696 0.232 0.219 0.528 0.327 0.824 0.327 0.319 0 0.637-0.126 0.873-0.376l7.4-7.84c0.436-0.463 0.436-1.185-0-1.648z"></path>
<path d="M9.473 23.017l-6.622-7.016 6.622-7.016c0.455-0.482 0.433-1.242-0.049-1.696s-1.242-0.433-1.696 0.049l-7.4 7.84c-0.436 0.462-0.436 1.185 0 1.648l7.4 7.84c0.236 0.25 0.554 0.376 0.873 0.376 0.295 0 0.592-0.109 0.823-0.328 0.482-0.455 0.504-1.214 0.049-1.696z"></path>
<path d="M17.941 3.294c-0.655-0.099-1.268 0.35-1.368 1.005l-3.52 23.040c-0.1 0.655 0.35 1.268 1.005 1.368 0.062 0.009 0.122 0.014 0.183 0.014 0.583 0 1.094-0.425 1.185-1.019l3.52-23.040c0.1-0.655-0.35-1.268-1.005-1.368z"></path>
</svg>
