<!-- Generated by IcoMoon.io -->
<svg version="1.1" xmlns="http://www.w3.org/2000/svg" width="32" height="32" viewBox="0 0 32 32">
<title>contact-filled</title>
<path d="M24.374 26.909l-5.394-3.596c-0.241-0.159-0.564-0.107-0.743 0.121l-1.571 2.019c-0.509 0.663-1.428 0.853-2.158 0.445l-0.29-0.159c-1.048-0.572-2.352-1.283-4.941-3.872s-3.301-3.893-3.872-4.942l-0.16-0.29c-0.408-0.73-0.219-1.648 0.445-2.157l2.019-1.571c0.228-0.178 0.28-0.502 0.121-0.743l-3.596-5.395c-0.164-0.245-0.49-0.318-0.743-0.167l-2.257 1.353c-0.484 0.283-0.84 0.742-0.994 1.281-0.741 2.7-0.118 7.426 7.062 14.606s11.905 7.805 14.607 7.063c0.539-0.154 0.998-0.51 1.281-0.995l1.353-2.257c0.151-0.253 0.078-0.579-0.167-0.743z"></path>
<path d="M31.909 0.947c-0.059-0.059-0.14-0.092-0.223-0.091h-23.948c-0.084-0.001-0.164 0.032-0.223 0.091s-0.092 0.14-0.091 0.223v8.321l1.358 2.037c0.49 0.74 0.329 1.732-0.37 2.279l-2.017 1.571c-0.216 0.164-0.279 0.461-0.147 0.698l0.165 0.3c0.525 0.998 1.165 1.931 1.907 2.78h23.367c0.171 0.001 0.312-0.136 0.314-0.308v-17.68c0.001-0.084-0.032-0.164-0.091-0.223zM15.67 11.342v-0.003l-5.855 6.273c-0.215 0.231-0.577 0.244-0.808 0.028s-0.244-0.577-0.028-0.808l5.855-6.27c0.215-0.231 0.577-0.244 0.808-0.028s0.244 0.577 0.028 0.808zM19.711 10.892c-0.412 0.002-0.813-0.131-1.143-0.377l-9.553-7.244c-0.252-0.192-0.3-0.551-0.109-0.803s0.551-0.3 0.803-0.109l9.549 7.244c0.27 0.196 0.636 0.196 0.907 0l9.552-7.244c0.252-0.191 0.61-0.142 0.801 0.11s0.142 0.61-0.11 0.801l-9.553 7.244c-0.33 0.247-0.731 0.379-1.143 0.377zM30.452 17.64c-0.111 0.104-0.258 0.159-0.41 0.153s-0.295-0.071-0.398-0.181l-5.854-6.273c-0.199-0.233-0.179-0.582 0.046-0.79s0.574-0.203 0.791 0.013l5.853 6.27c0.215 0.231 0.203 0.592-0.028 0.808z"></path>
</svg>
