<!-- Generated by IcoMoon.io -->
<svg version="1.1" xmlns="http://www.w3.org/2000/svg" width="32" height="32" viewBox="0 0 32 32">
<title>contact</title>
<path d="M30.64 0.801h-22.352c-0.751 0.001-1.359 0.609-1.36 1.36v6.165l-1.022-1.533c-0.468-0.706-1.409-0.917-2.134-0.48l-2.103 1.264c-0.689 0.404-1.194 1.059-1.409 1.828-0.767 2.793-0.198 7.606 6.866 14.67 5.617 5.611 9.806 7.123 12.692 7.123 0.668 0.003 1.334-0.084 1.979-0.258 0.768-0.216 1.424-0.72 1.829-1.408l1.263-2.105c0.436-0.724 0.224-1.663-0.48-2.131l-5.035-3.357c-0.691-0.457-1.617-0.307-2.127 0.345l-1.466 1.885c-0.153 0.202-0.431 0.26-0.653 0.138l-0.279-0.154c-0.918-0.5-2.061-1.123-4.368-3.431-0.25-0.25-0.476-0.483-0.688-0.707h20.85c0.749 0.001 1.357-0.605 1.36-1.354v-16.501c-0.001-0.751-0.609-1.359-1.36-1.36zM14.336 25.091l0.271 0.149c0.681 0.381 1.539 0.204 2.014-0.415l1.466-1.885c0.167-0.212 0.468-0.261 0.693-0.113l5.035 3.357c0.229 0.152 0.297 0.458 0.156 0.693l-1.263 2.105c-0.264 0.452-0.692 0.785-1.195 0.928-2.522 0.693-6.935 0.107-13.633-6.592s-7.283-11.112-6.591-13.631c0.143-0.503 0.476-0.932 0.928-1.195l2.105-1.263c0.236-0.141 0.541-0.072 0.693 0.156l3.358 5.035c0.149 0.225 0.1 0.527-0.113 0.693l-1.885 1.466c-0.619 0.475-0.796 1.332-0.415 2.013l0.149 0.271c0.533 0.978 1.197 2.196 3.614 4.612s3.634 3.080 4.612 3.614zM30.933 18.662c-0.002 0.16-0.133 0.289-0.293 0.288h-21.812c-0.693-0.792-1.29-1.663-1.78-2.595l-0.154-0.28c-0.123-0.221-0.064-0.499 0.138-0.652l1.885-1.466c0.652-0.511 0.802-1.437 0.345-2.127l-1.268-1.902v-7.766c-0.001-0.078 0.030-0.153 0.085-0.208s0.13-0.086 0.208-0.085h22.352c0.078-0.001 0.153 0.030 0.208 0.085s0.086 0.13 0.085 0.208v16.501z"></path>
<path d="M28.802 3.271l-8.916 6.762c-0.252 0.183-0.594 0.183-0.846 0l-8.912-6.762c-0.235-0.178-0.57-0.132-0.748 0.103s-0.132 0.57 0.103 0.748l8.914 6.761c0.634 0.469 1.5 0.469 2.134 0l8.916-6.761c0.113-0.086 0.187-0.212 0.206-0.353s-0.018-0.282-0.104-0.395c-0.178-0.234-0.512-0.28-0.747-0.102z"></path>
<path d="M14.911 10.927l-5.465 5.852c-0.201 0.215-0.189 0.553 0.026 0.754s0.553 0.189 0.754-0.026l5.465-5.855c0.181-0.218 0.16-0.539-0.048-0.731s-0.529-0.19-0.733 0.006z"></path>
<path d="M24.051 10.927c-0.201-0.216-0.538-0.227-0.754-0.026s-0.227 0.539-0.026 0.754l5.463 5.852c0.201 0.215 0.538 0.227 0.754 0.026s0.227-0.538 0.026-0.754l-5.463-5.852z"></path>
</svg>
