<!-- Generated by IcoMoon.io -->
<svg version="1.1" xmlns="http://www.w3.org/2000/svg" width="32" height="32" viewBox="0 0 32 32">
<title>demo</title>
<path d="M29.867 4.267v1.067c0.589 0 1.067 0.477 1.067 1.067v16h-29.867v-16c0-0.589 0.477-1.067 1.067-1.067v-1.067c-1.178 0-2.133 0.955-2.133 2.133v18.133c0 1.178 0.955 2.133 2.133 2.133h10.483l-1.28 4.267h-1.203v1.067h11.733v-1.067h-1.203l-1.28-4.267h10.483c1.178 0 2.133-0.955 2.133-2.133v-18.133c0-1.178-0.955-2.133-2.133-2.133zM19.55 30.933h-7.1l1.28-4.267h4.54zM30.933 24.533c0 0.589-0.477 1.067-1.067 1.067h-27.733c-0.589 0-1.067-0.477-1.067-1.067v-1.067h29.867z"></path>
<path d="M3.2 2.133v19.2h1.067v-19.2c0-0.589 0.477-1.067 1.067-1.067h21.333c0.589 0 1.067 0.477 1.067 1.067v19.2h1.067v-19.2c0-1.178-0.955-2.133-2.133-2.133h-21.333c-1.178 0-2.133 0.955-2.133 2.133z"></path>
<path d="M5.333 2.133h1.067v1.067h-1.067z"></path>
<path d="M7.467 2.133h1.067v1.067h-1.067z"></path>
<path d="M9.6 2.133h1.067v1.067h-1.067z"></path>
<path d="M5.333 4.267h21.333v1.067h-21.333z"></path>
<path d="M11.733 7.467c0-0.589-0.477-1.067-1.067-1.067h-4.267c-0.589 0-1.067 0.477-1.067 1.067v3.2c0 0.589 0.477 1.067 1.067 1.067h4.267c0.589 0 1.067-0.477 1.067-1.067zM6.4 10.667v-3.2h4.267v3.2z"></path>
<path d="M19.2 7.467c0-0.589-0.477-1.067-1.067-1.067h-4.267c-0.589 0-1.067 0.477-1.067 1.067v3.2c0 0.589 0.477 1.067 1.067 1.067h4.267c0.589 0 1.067-0.477 1.067-1.067zM13.867 10.667v-3.2h4.267v3.2z"></path>
<path d="M26.667 7.467c0-0.589-0.477-1.067-1.067-1.067h-4.267c-0.589 0-1.067 0.477-1.067 1.067v3.2c0 0.589 0.477 1.067 1.067 1.067h4.267c0.589 0 1.067-0.477 1.067-1.067zM21.333 10.667v-3.2h4.267v3.2z"></path>
<path d="M11.733 13.867c0-0.589-0.477-1.067-1.067-1.067h-4.267c-0.589 0-1.067 0.477-1.067 1.067v3.2c0 0.589 0.477 1.067 1.067 1.067h4.267c0.589 0 1.067-0.477 1.067-1.067zM6.4 17.067v-3.2h4.267v3.2z"></path>
<path d="M19.2 13.867c0-0.589-0.477-1.067-1.067-1.067h-4.267c-0.589 0-1.067 0.477-1.067 1.067v3.2c0 0.589 0.477 1.067 1.067 1.067h4.267c0.589 0 1.067-0.477 1.067-1.067zM13.867 17.067v-3.2h4.267v3.2z"></path>
<path d="M26.667 13.867c0-0.589-0.477-1.067-1.067-1.067h-4.267c-0.589 0-1.067 0.477-1.067 1.067v3.2c0 0.589 0.477 1.067 1.067 1.067h4.267c0.589 0 1.067-0.477 1.067-1.067zM21.333 17.067v-3.2h4.267v3.2z"></path>
<path d="M11.733 21.333v-1.067c0-0.589-0.477-1.067-1.067-1.067h-4.267c-0.589 0-1.067 0.477-1.067 1.067v1.067h1.067v-1.067h4.267v1.067z"></path>
<path d="M19.2 21.333v-1.067c0-0.589-0.477-1.067-1.067-1.067h-4.267c-0.589 0-1.067 0.477-1.067 1.067v1.067h1.067v-1.067h4.267v1.067z"></path>
<path d="M26.667 21.333v-1.067c0-0.589-0.477-1.067-1.067-1.067h-4.267c-0.589 0-1.067 0.477-1.067 1.067v1.067h1.067v-1.067h4.267v1.067z"></path>
</svg>
