<!-- Generated by IcoMoon.io -->
<svg version="1.1" xmlns="http://www.w3.org/2000/svg" width="32" height="32" viewBox="0 0 32 32">
<title>down-arrow</title>
<path d="M29.714 20.571c-0.631 0-1.143 0.512-1.143 1.143v6.857c0 0.631-0.512 1.143-1.143 1.143h-22.857c-0.631 0-1.143-0.512-1.143-1.143v-6.857c0-0.631-0.512-1.143-1.143-1.143s-1.143 0.512-1.143 1.143v6.857c0 1.894 1.535 3.429 3.429 3.429h22.857c1.894 0 3.429-1.535 3.429-3.429v-6.857c0-0.631-0.512-1.143-1.143-1.143z"></path>
<path d="M22.496 19.763c-0.443-0.428-1.145-0.428-1.588 0l-3.766 3.763v-22.384c0-0.631-0.512-1.143-1.143-1.143s-1.143 0.512-1.143 1.143v22.384l-3.763-3.763c-0.454-0.438-1.178-0.426-1.616 0.028-0.428 0.443-0.428 1.145 0 1.588l5.714 5.714c0.446 0.447 1.169 0.448 1.616 0.002 0.001-0.001 0.001-0.001 0.002-0.002l5.714-5.714c0.439-0.454 0.426-1.177-0.028-1.616z"></path>
</svg>
