<!-- Generated by IcoMoon.io -->
<svg version="1.1" xmlns="http://www.w3.org/2000/svg" width="32" height="32" viewBox="0 0 32 32">
<title>gps</title>
<path d="M15.729 0.984c-5.75 0-10.428 4.678-10.428 10.428 0 7.227 10.438 19.572 10.438 19.572s10.418-12.701 10.418-19.572c0-5.75-4.678-10.428-10.428-10.428zM18.875 14.466c-0.868 0.867-2.007 1.301-3.146 1.301s-2.279-0.434-3.146-1.301c-1.735-1.735-1.735-4.557 0-6.292 0.84-0.84 1.958-1.303 3.146-1.303s2.306 0.463 3.146 1.303c1.735 1.735 1.735 4.558 0 6.292z"></path>
</svg>
