<!-- Generated by IcoMoon.io -->
<svg version="1.1" xmlns="http://www.w3.org/2000/svg" width="32" height="32" viewBox="0 0 32 32">
<title>home-run</title>
<path d="M31.2 13.856c-0.001-0.001-0.002-0.002-0.002-0.002l-13.053-13.053c-0.556-0.557-1.296-0.863-2.083-0.863s-1.527 0.306-2.083 0.863l-13.047 13.046c-0.004 0.004-0.009 0.009-0.013 0.013-1.143 1.149-1.141 3.014 0.006 4.16 0.524 0.524 1.215 0.827 1.955 0.859 0.030 0.003 0.061 0.004 0.091 0.004h0.52v9.606c0 1.901 1.547 3.448 3.448 3.448h5.107c0.518 0 0.938-0.42 0.938-0.938v-7.531c0-0.867 0.706-1.573 1.573-1.573h3.012c0.867 0 1.573 0.706 1.573 1.573v7.531c0 0.518 0.42 0.938 0.938 0.938h5.107c1.901 0 3.448-1.547 3.448-3.448v-9.606h0.482c0.787 0 1.526-0.306 2.083-0.863 1.147-1.148 1.148-3.016 0.002-4.165zM29.872 16.695c-0.202 0.202-0.471 0.314-0.757 0.314h-1.42c-0.518 0-0.938 0.42-0.938 0.938v10.543c0 0.867-0.706 1.573-1.573 1.573h-4.169v-6.594c0-1.901-1.547-3.448-3.448-3.448h-3.012c-1.901 0-3.448 1.547-3.448 3.448v6.594h-4.169c-0.867 0-1.573-0.706-1.573-1.573v-10.543c0-0.518-0.42-0.938-0.938-0.938h-1.396c-0.015-0.001-0.029-0.002-0.044-0.002-0.279-0.005-0.541-0.116-0.738-0.312-0.417-0.417-0.417-1.097 0-1.515 0 0 0-0 0.001-0.001l13.054-13.053c0.202-0.202 0.471-0.314 0.757-0.314s0.555 0.111 0.757 0.314l13.050 13.050c0.002 0.002 0.004 0.004 0.006 0.006 0.415 0.418 0.415 1.096-0.002 1.513z"></path>
</svg>
