<!-- Generated by IcoMoon.io -->
<svg version="1.1" xmlns="http://www.w3.org/2000/svg" width="32" height="32" viewBox="0 0 32 32">
<title>menu</title>
<path d="M13.511 0h-12.326c-0.652 0-1.185 0.533-1.185 1.185v12.326c0 0.652 0.533 1.185 1.185 1.185h12.326c0.652 0 1.185-0.533 1.185-1.185v-12.326c0-0.652-0.533-1.185-1.185-1.185zM12.326 12.326h-9.956v-9.956h9.956v9.956z"></path>
<path d="M30.815 0h-12.326c-0.652 0-1.185 0.533-1.185 1.185v12.326c0 0.652 0.533 1.185 1.185 1.185h12.326c0.652 0 1.185-0.533 1.185-1.185v-12.326c0-0.652-0.533-1.185-1.185-1.185zM29.63 12.326h-9.956v-9.956h9.956v9.956z"></path>
<path d="M13.511 17.304h-12.326c-0.652 0-1.185 0.533-1.185 1.185v12.326c0 0.652 0.533 1.185 1.185 1.185h12.326c0.652 0 1.185-0.533 1.185-1.185v-12.326c0-0.652-0.533-1.185-1.185-1.185zM12.326 29.63h-9.956v-9.956h9.956v9.956z"></path>
<path d="M30.815 17.304h-12.326c-0.652 0-1.185 0.533-1.185 1.185v12.326c0 0.652 0.533 1.185 1.185 1.185h12.326c0.652 0 1.185-0.533 1.185-1.185v-12.326c0-0.652-0.533-1.185-1.185-1.185zM29.63 29.63h-9.956v-9.956h9.956v9.956z"></path>
</svg>
