<!-- Generated by IcoMoon.io -->
<svg version="1.1" xmlns="http://www.w3.org/2000/svg" width="32" height="32" viewBox="0 0 32 32">
<title>menu-filled</title>
<path d="M13.539 0h-12.308c-0.68 0-1.231 0.551-1.231 1.231v12.308c0 0.68 0.551 1.231 1.231 1.231h12.308c0.68 0 1.231-0.551 1.231-1.231v-12.308c0-0.68-0.551-1.231-1.231-1.231z"></path>
<path d="M30.769 0h-12.308c-0.68 0-1.231 0.551-1.231 1.231v12.308c0 0.68 0.551 1.231 1.231 1.231h12.308c0.68 0 1.231-0.551 1.231-1.231v-12.308c0-0.68-0.551-1.231-1.231-1.231z"></path>
<path d="M13.539 17.231h-12.308c-0.68 0-1.231 0.551-1.231 1.231v12.308c0 0.68 0.551 1.231 1.231 1.231h12.308c0.68 0 1.231-0.551 1.231-1.231v-12.308c0-0.68-0.551-1.231-1.231-1.231z"></path>
<path d="M30.769 17.231h-12.308c-0.68 0-1.231 0.551-1.231 1.231v12.308c0 0.68 0.551 1.231 1.231 1.231h12.308c0.68 0 1.231-0.551 1.231-1.231v-12.308c0-0.68-0.551-1.231-1.231-1.231z"></path>
</svg>
