<!-- Generated by IcoMoon.io -->
<svg version="1.1" xmlns="http://www.w3.org/2000/svg" width="32" height="32" viewBox="0 0 32 32">
<title>phone</title>
<path d="M18.667 1.6h-5.333c-0.294 0-0.533 0.239-0.533 0.533s0.239 0.533 0.533 0.533h5.333c0.294 0 0.533-0.239 0.533-0.533s-0.239-0.533-0.533-0.533z"></path>
<path d="M22.4 1.6h-0.533c-0.294 0-0.533 0.239-0.533 0.533s0.239 0.533 0.533 0.533h0.533c0.294 0 0.533-0.239 0.533-0.533s-0.239-0.533-0.533-0.533z"></path>
<path d="M16.662 27.2h-1.324c-0.811 0-1.471 0.66-1.471 1.471v0.258c0 0.811 0.66 1.471 1.471 1.471h1.324c0.811 0 1.471-0.66 1.471-1.471v-0.258c0-0.811-0.66-1.471-1.471-1.471zM17.067 28.929c0 0.223-0.181 0.404-0.404 0.404h-1.324c-0.223 0-0.405-0.181-0.405-0.404v-0.258c0-0.223 0.181-0.405 0.405-0.405h1.324c0.224 0 0.405 0.181 0.405 0.405v0.258z"></path>
<path d="M23.139 0h-14.278c-1.063 0-1.928 0.865-1.928 1.928v28.144c0 1.063 0.865 1.928 1.928 1.928h14.277c1.063 0 1.928-0.865 1.928-1.927v-28.145c0-1.063-0.865-1.928-1.927-1.928zM24 30.072c0 0.475-0.386 0.861-0.861 0.861h-14.278c-0.475 0-0.861-0.387-0.861-0.861v-28.145c0-0.475 0.386-0.861 0.861-0.861h14.277c0.475 0 0.861 0.387 0.861 0.861v28.144z"></path>
<path d="M24.533 3.2h-17.067c-0.294 0-0.533 0.239-0.533 0.533v22.4c0 0.294 0.239 0.533 0.533 0.533h17.067c0.294 0 0.533-0.239 0.533-0.533v-22.4c0-0.294-0.239-0.533-0.533-0.533zM24 25.6h-16v-21.333h16v21.333z"></path>
</svg>
