<!-- Generated by IcoMoon.io -->
<svg version="1.1" xmlns="http://www.w3.org/2000/svg" width="32" height="32" viewBox="0 0 32 32">
<title>project</title>
<path d="M23.32 7.72c-1.636-2.418-4.356-3.871-7.275-3.885-2.362-0.013-4.589 0.902-6.268 2.573-1.694 1.686-2.627 3.934-2.627 6.331 0 2.211 0.81 4.33 2.281 5.968l1.351 1.832c0.092 0.125 0.234 0.191 0.378 0.191 0.097 0 0.194-0.030 0.278-0.091 0.208-0.154 0.253-0.447 0.099-0.655l-1.364-1.85c-0.009-0.012-0.019-0.024-0.029-0.036-1.325-1.468-2.055-3.371-2.055-5.357 0-2.146 0.835-4.158 2.351-5.666 1.492-1.484 3.465-2.3 5.562-2.3 0.013 0 0.027 0 0.040 0 2.609 0.013 5.040 1.311 6.503 3.473 0.145 0.214 0.436 0.271 0.651 0.126s0.271-0.436 0.126-0.651z"></path>
<path d="M12.773 24.5c0.047 0 0.094 0 0.104 0-0.011 0-0.057-0-0.104-0z"></path>
<path d="M24.27 9.553c-0.092-0.242-0.362-0.364-0.604-0.273s-0.364 0.362-0.273 0.604c0.344 0.909 0.518 1.869 0.518 2.854 0 1.99-0.733 3.895-2.064 5.365-0.011 0.012-0.021 0.024-0.030 0.037l-0.314 0.427c-0.373 0.507-0.745 1.012-1.12 1.521-0.011 0.015-0.021 0.030-0.030 0.046-0.72 1.262-1.235 2.514-1.565 3.428h-5.579c-0.215-0.597-0.455-1.19-0.717-1.765-0.107-0.236-0.385-0.34-0.621-0.232s-0.34 0.385-0.232 0.621c0.231 0.507 0.422 0.98 0.572 1.377h-0.025c-0.259 0-0.469 0.21-0.469 0.469v1.406h-0.219c-0.259 0-0.469 0.21-0.469 0.469v1.875c0 0.259 0.21 0.469 0.469 0.469h0.219v1.406c0 0.259 0.21 0.469 0.469 0.469h0.31l0.329 1.506c0.047 0.215 0.238 0.369 0.458 0.369h5.431c0.22 0 0.411-0.154 0.458-0.369l0.329-1.506h0.31c0.259 0 0.469-0.21 0.469-0.469v-1.406h0.219c0.259 0 0.469-0.21 0.469-0.469v-1.875c0-0.259-0.21-0.469-0.469-0.469h-0.219v-1.406c0-0.259-0.21-0.469-0.469-0.469h-0.024c0.314-0.831 0.766-1.882 1.367-2.94 0.369-0.501 0.736-0.999 1.104-1.499l0.301-0.408c1.477-1.64 2.29-3.761 2.29-5.976-0-1.099-0.195-2.171-0.579-3.186zM18.338 31.063h-4.677l-0.205-0.938h5.086l-0.205 0.938zM19.344 29.188h-6.688v-0.938h6.688v0.938zM20.031 26.375v0.938h-8.063v-0.938h2.021c0.259 0 0.469-0.21 0.469-0.469s-0.21-0.469-0.469-0.469h-1.333v-0.938c0 0 0.001 0 0.002 0 0.012 0 0.064 0 0.114 0-0.050 0-0.102-0-0.114-0h6.682c-0.012 0-0.060 0-0.109 0 0.049 0 0.098-0 0.109-0h0.002v0.938h-3.344c-0.259 0-0.469 0.21-0.469 0.469s0.21 0.469 0.469 0.469h4.031z"></path>
<path d="M19.232 24.5c-0.049 0-0.098 0-0.109 0 0.011 0 0.060-0 0.109-0z"></path>
<path d="M16 0c-0.259 0-0.469 0.21-0.469 0.469v2.144c0 0.259 0.21 0.469 0.469 0.469s0.469-0.21 0.469-0.469v-2.144c0-0.259-0.21-0.469-0.469-0.469z"></path>
<path d="M11.072 3.809l-1.072-1.857c-0.13-0.224-0.416-0.301-0.64-0.172s-0.301 0.416-0.172 0.64l1.072 1.857c0.087 0.15 0.244 0.234 0.406 0.234 0.079 0 0.16-0.020 0.234-0.063 0.224-0.129 0.301-0.416 0.172-0.64z"></path>
<path d="M6.995 7.535l-1.857-1.072c-0.224-0.13-0.511-0.053-0.64 0.172s-0.053 0.511 0.172 0.64l1.857 1.072c0.074 0.043 0.154 0.063 0.234 0.063 0.162 0 0.32-0.084 0.406-0.234 0.129-0.224 0.053-0.511-0.172-0.64z"></path>
<path d="M27.33 19.275l-1.857-1.072c-0.224-0.13-0.511-0.053-0.64 0.172s-0.053 0.511 0.172 0.64l1.857 1.072c0.074 0.043 0.154 0.063 0.234 0.063 0.162 0 0.32-0.084 0.406-0.234 0.13-0.224 0.053-0.511-0.172-0.64z"></path>
<path d="M5.332 12.794h-2.144c-0.259 0-0.469 0.21-0.469 0.469s0.21 0.469 0.469 0.469h2.144c0.259 0 0.469-0.21 0.469-0.469s-0.21-0.469-0.469-0.469z"></path>
<path d="M28.813 12.794h-2.144c-0.259 0-0.469 0.21-0.469 0.469s0.21 0.469 0.469 0.469h2.144c0.259 0 0.469-0.21 0.469-0.469s-0.21-0.469-0.469-0.469z"></path>
<path d="M7.167 18.348c-0.129-0.224-0.416-0.301-0.64-0.172l-1.857 1.072c-0.224 0.129-0.301 0.416-0.172 0.64 0.087 0.15 0.244 0.234 0.406 0.234 0.080 0 0.16-0.020 0.234-0.063l1.857-1.072c0.224-0.129 0.301-0.416 0.172-0.64z"></path>
<path d="M27.502 6.607c-0.129-0.224-0.416-0.301-0.64-0.172l-1.857 1.072c-0.224 0.129-0.301 0.416-0.172 0.64 0.087 0.15 0.244 0.234 0.406 0.234 0.079 0 0.16-0.020 0.234-0.063l1.857-1.072c0.224-0.129 0.301-0.416 0.172-0.64z"></path>
<path d="M22.641 1.733c-0.224-0.129-0.511-0.053-0.64 0.172l-1.072 1.857c-0.13 0.224-0.053 0.511 0.172 0.64 0.074 0.043 0.154 0.063 0.234 0.063 0.162 0 0.32-0.084 0.406-0.234l1.072-1.857c0.129-0.224 0.053-0.511-0.172-0.64z"></path>
<path d="M13.857 14.801l-2.175-1.761 2.175-1.761c0.201-0.163 0.232-0.458 0.069-0.659s-0.458-0.232-0.659-0.069l-2.625 2.125c-0.11 0.089-0.174 0.223-0.174 0.364s0.064 0.275 0.174 0.364l2.625 2.125c0.087 0.070 0.191 0.104 0.295 0.104 0.137 0 0.272-0.059 0.365-0.174 0.163-0.201 0.132-0.496-0.069-0.659z"></path>
<path d="M21.357 12.676l-2.625-2.125c-0.201-0.163-0.496-0.132-0.659 0.069s-0.132 0.496 0.069 0.659l2.175 1.761-2.175 1.761c-0.201 0.163-0.232 0.458-0.069 0.659 0.093 0.114 0.228 0.174 0.365 0.174 0.104 0 0.208-0.034 0.295-0.104l2.625-2.125c0.11-0.089 0.174-0.223 0.174-0.364s-0.064-0.275-0.174-0.364z"></path>
<path d="M17.618 9.171c-0.239-0.1-0.513 0.013-0.613 0.252l-2.875 6.875c-0.1 0.239 0.013 0.513 0.252 0.613 0.059 0.025 0.12 0.036 0.181 0.036 0.183 0 0.357-0.108 0.433-0.288l2.875-6.875c0.1-0.239-0.013-0.513-0.252-0.613z"></path>
</svg>
