<!-- Generated by IcoMoon.io -->
<svg version="1.1" xmlns="http://www.w3.org/2000/svg" width="32" height="32" viewBox="0 0 32 32">
<title>send</title>
<path d="M31.978 3.23c0.156-0.726-0.556-1.339-1.25-1.073l-30.125 11.5c-0.363 0.138-0.602 0.486-0.603 0.874s0.238 0.737 0.6 0.876l8.463 3.268v10.294c0 0.434 0.298 0.812 0.721 0.912 0.42 0.1 0.857-0.1 1.054-0.49l3.5-6.945 8.541 6.339c0.52 0.386 1.266 0.14 1.455-0.479 7.975-26.147 7.63-25.010 7.644-25.076zM24.542 6.524l-14.675 10.451-6.314-2.439zM10.937 18.515l12.792-9.11c-11.007 11.612-10.432 11.001-10.48 11.065-0.071 0.096 0.124-0.278-2.311 4.555zM22.928 26.487l-7.518-5.58 13.594-14.341z"></path>
</svg>
