<svg aria-hidden="true" style="position: absolute; width: 0; height: 0; overflow: hidden;" version="1.1" xmlns="http://www.w3.org/2000/svg" xmlns:xlink="http://www.w3.org/1999/xlink">
<defs>
<symbol id="icon-down-arrow" viewBox="0 0 32 32">
<path d="M29.714 20.571c-0.631 0-1.143 0.512-1.143 1.143v6.857c0 0.631-0.512 1.143-1.143 1.143h-22.857c-0.631 0-1.143-0.512-1.143-1.143v-6.857c0-0.631-0.512-1.143-1.143-1.143s-1.143 0.512-1.143 1.143v6.857c0 1.894 1.535 3.429 3.429 3.429h22.857c1.894 0 3.429-1.535 3.429-3.429v-6.857c0-0.631-0.512-1.143-1.143-1.143z"></path>
<path d="M22.496 19.763c-0.443-0.428-1.145-0.428-1.588 0l-3.766 3.763v-22.384c0-0.631-0.512-1.143-1.143-1.143s-1.143 0.512-1.143 1.143v22.384l-3.763-3.763c-0.454-0.438-1.178-0.426-1.616 0.028-0.428 0.443-0.428 1.145 0 1.588l5.714 5.714c0.446 0.447 1.169 0.448 1.616 0.002 0.001-0.001 0.001-0.001 0.002-0.002l5.714-5.714c0.439-0.454 0.426-1.177-0.028-1.616z"></path>
</symbol>
<symbol id="icon-coding" viewBox="0 0 32 32">
<path d="M31.673 15.177l-7.4-7.84c-0.455-0.482-1.214-0.504-1.696-0.049s-0.504 1.214-0.049 1.696l6.623 7.016-6.623 7.017c-0.455 0.482-0.433 1.241 0.049 1.696 0.232 0.219 0.528 0.327 0.824 0.327 0.319 0 0.637-0.126 0.873-0.376l7.4-7.84c0.436-0.463 0.436-1.185-0-1.648z"></path>
<path d="M9.473 23.017l-6.622-7.016 6.622-7.016c0.455-0.482 0.433-1.242-0.049-1.696s-1.242-0.433-1.696 0.049l-7.4 7.84c-0.436 0.462-0.436 1.185 0 1.648l7.4 7.84c0.236 0.25 0.554 0.376 0.873 0.376 0.295 0 0.592-0.109 0.823-0.328 0.482-0.455 0.504-1.214 0.049-1.696z"></path>
<path d="M17.941 3.294c-0.655-0.099-1.268 0.35-1.368 1.005l-3.52 23.040c-0.1 0.655 0.35 1.268 1.005 1.368 0.062 0.009 0.122 0.014 0.183 0.014 0.583 0 1.094-0.425 1.185-1.019l3.52-23.040c0.1-0.655-0.35-1.268-1.005-1.368z"></path>
</symbol>
<symbol id="icon-contact-filled" viewBox="0 0 32 32">
<path d="M24.374 26.909l-5.394-3.596c-0.241-0.159-0.564-0.107-0.743 0.121l-1.571 2.019c-0.509 0.663-1.428 0.853-2.158 0.445l-0.29-0.159c-1.048-0.572-2.352-1.283-4.941-3.872s-3.301-3.893-3.872-4.942l-0.16-0.29c-0.408-0.73-0.219-1.648 0.445-2.157l2.019-1.571c0.228-0.178 0.28-0.502 0.121-0.743l-3.596-5.395c-0.164-0.245-0.49-0.318-0.743-0.167l-2.257 1.353c-0.484 0.283-0.84 0.742-0.994 1.281-0.741 2.7-0.118 7.426 7.062 14.606s11.905 7.805 14.607 7.063c0.539-0.154 0.998-0.51 1.281-0.995l1.353-2.257c0.151-0.253 0.078-0.579-0.167-0.743z"></path>
<path d="M31.909 0.947c-0.059-0.059-0.14-0.092-0.223-0.091h-23.948c-0.084-0.001-0.164 0.032-0.223 0.091s-0.092 0.14-0.091 0.223v8.321l1.358 2.037c0.49 0.74 0.329 1.732-0.37 2.279l-2.017 1.571c-0.216 0.164-0.279 0.461-0.147 0.698l0.165 0.3c0.525 0.998 1.165 1.931 1.907 2.78h23.367c0.171 0.001 0.312-0.136 0.314-0.308v-17.68c0.001-0.084-0.032-0.164-0.091-0.223zM15.67 11.342v-0.003l-5.855 6.273c-0.215 0.231-0.577 0.244-0.808 0.028s-0.244-0.577-0.028-0.808l5.855-6.27c0.215-0.231 0.577-0.244 0.808-0.028s0.244 0.577 0.028 0.808zM19.711 10.892c-0.412 0.002-0.813-0.131-1.143-0.377l-9.553-7.244c-0.252-0.192-0.3-0.551-0.109-0.803s0.551-0.3 0.803-0.109l9.549 7.244c0.27 0.196 0.636 0.196 0.907 0l9.552-7.244c0.252-0.191 0.61-0.142 0.801 0.11s0.142 0.61-0.11 0.801l-9.553 7.244c-0.33 0.247-0.731 0.379-1.143 0.377zM30.452 17.64c-0.111 0.104-0.258 0.159-0.41 0.153s-0.295-0.071-0.398-0.181l-5.854-6.273c-0.199-0.233-0.179-0.582 0.046-0.79s0.574-0.203 0.791 0.013l5.853 6.27c0.215 0.231 0.203 0.592-0.028 0.808z"></path>
</symbol>
<symbol id="icon-contact" viewBox="0 0 32 32">
<path d="M30.64 0.801h-22.352c-0.751 0.001-1.359 0.609-1.36 1.36v6.165l-1.022-1.533c-0.468-0.706-1.409-0.917-2.134-0.48l-2.103 1.264c-0.689 0.404-1.194 1.059-1.409 1.828-0.767 2.793-0.198 7.606 6.866 14.67 5.617 5.611 9.806 7.123 12.692 7.123 0.668 0.003 1.334-0.084 1.979-0.258 0.768-0.216 1.424-0.72 1.829-1.408l1.263-2.105c0.436-0.724 0.224-1.663-0.48-2.131l-5.035-3.357c-0.691-0.457-1.617-0.307-2.127 0.345l-1.466 1.885c-0.153 0.202-0.431 0.26-0.653 0.138l-0.279-0.154c-0.918-0.5-2.061-1.123-4.368-3.431-0.25-0.25-0.476-0.483-0.688-0.707h20.85c0.749 0.001 1.357-0.605 1.36-1.354v-16.501c-0.001-0.751-0.609-1.359-1.36-1.36zM14.336 25.091l0.271 0.149c0.681 0.381 1.539 0.204 2.014-0.415l1.466-1.885c0.167-0.212 0.468-0.261 0.693-0.113l5.035 3.357c0.229 0.152 0.297 0.458 0.156 0.693l-1.263 2.105c-0.264 0.452-0.692 0.785-1.195 0.928-2.522 0.693-6.935 0.107-13.633-6.592s-7.283-11.112-6.591-13.631c0.143-0.503 0.476-0.932 0.928-1.195l2.105-1.263c0.236-0.141 0.541-0.072 0.693 0.156l3.358 5.035c0.149 0.225 0.1 0.527-0.113 0.693l-1.885 1.466c-0.619 0.475-0.796 1.332-0.415 2.013l0.149 0.271c0.533 0.978 1.197 2.196 3.614 4.612s3.634 3.080 4.612 3.614zM30.933 18.662c-0.002 0.16-0.133 0.289-0.293 0.288h-21.812c-0.693-0.792-1.29-1.663-1.78-2.595l-0.154-0.28c-0.123-0.221-0.064-0.499 0.138-0.652l1.885-1.466c0.652-0.511 0.802-1.437 0.345-2.127l-1.268-1.902v-7.766c-0.001-0.078 0.030-0.153 0.085-0.208s0.13-0.086 0.208-0.085h22.352c0.078-0.001 0.153 0.030 0.208 0.085s0.086 0.13 0.085 0.208v16.501z"></path>
<path d="M28.802 3.271l-8.916 6.762c-0.252 0.183-0.594 0.183-0.846 0l-8.912-6.762c-0.235-0.178-0.57-0.132-0.748 0.103s-0.132 0.57 0.103 0.748l8.914 6.761c0.634 0.469 1.5 0.469 2.134 0l8.916-6.761c0.113-0.086 0.187-0.212 0.206-0.353s-0.018-0.282-0.104-0.395c-0.178-0.234-0.512-0.28-0.747-0.102z"></path>
<path d="M14.911 10.927l-5.465 5.852c-0.201 0.215-0.189 0.553 0.026 0.754s0.553 0.189 0.754-0.026l5.465-5.855c0.181-0.218 0.16-0.539-0.048-0.731s-0.529-0.19-0.733 0.006z"></path>
<path d="M24.051 10.927c-0.201-0.216-0.538-0.227-0.754-0.026s-0.227 0.539-0.026 0.754l5.463 5.852c0.201 0.215 0.538 0.227 0.754 0.026s0.227-0.538 0.026-0.754l-5.463-5.852z"></path>
</symbol>
<symbol id="icon-demo" viewBox="0 0 32 32">
<path d="M29.867 4.267v1.067c0.589 0 1.067 0.477 1.067 1.067v16h-29.867v-16c0-0.589 0.477-1.067 1.067-1.067v-1.067c-1.178 0-2.133 0.955-2.133 2.133v18.133c0 1.178 0.955 2.133 2.133 2.133h10.483l-1.28 4.267h-1.203v1.067h11.733v-1.067h-1.203l-1.28-4.267h10.483c1.178 0 2.133-0.955 2.133-2.133v-18.133c0-1.178-0.955-2.133-2.133-2.133zM19.55 30.933h-7.1l1.28-4.267h4.54zM30.933 24.533c0 0.589-0.477 1.067-1.067 1.067h-27.733c-0.589 0-1.067-0.477-1.067-1.067v-1.067h29.867z"></path>
<path d="M3.2 2.133v19.2h1.067v-19.2c0-0.589 0.477-1.067 1.067-1.067h21.333c0.589 0 1.067 0.477 1.067 1.067v19.2h1.067v-19.2c0-1.178-0.955-2.133-2.133-2.133h-21.333c-1.178 0-2.133 0.955-2.133 2.133z"></path>
<path d="M5.333 2.133h1.067v1.067h-1.067z"></path>
<path d="M7.467 2.133h1.067v1.067h-1.067z"></path>
<path d="M9.6 2.133h1.067v1.067h-1.067z"></path>
<path d="M5.333 4.267h21.333v1.067h-21.333z"></path>
<path d="M11.733 7.467c0-0.589-0.477-1.067-1.067-1.067h-4.267c-0.589 0-1.067 0.477-1.067 1.067v3.2c0 0.589 0.477 1.067 1.067 1.067h4.267c0.589 0 1.067-0.477 1.067-1.067zM6.4 10.667v-3.2h4.267v3.2z"></path>
<path d="M19.2 7.467c0-0.589-0.477-1.067-1.067-1.067h-4.267c-0.589 0-1.067 0.477-1.067 1.067v3.2c0 0.589 0.477 1.067 1.067 1.067h4.267c0.589 0 1.067-0.477 1.067-1.067zM13.867 10.667v-3.2h4.267v3.2z"></path>
<path d="M26.667 7.467c0-0.589-0.477-1.067-1.067-1.067h-4.267c-0.589 0-1.067 0.477-1.067 1.067v3.2c0 0.589 0.477 1.067 1.067 1.067h4.267c0.589 0 1.067-0.477 1.067-1.067zM21.333 10.667v-3.2h4.267v3.2z"></path>
<path d="M11.733 13.867c0-0.589-0.477-1.067-1.067-1.067h-4.267c-0.589 0-1.067 0.477-1.067 1.067v3.2c0 0.589 0.477 1.067 1.067 1.067h4.267c0.589 0 1.067-0.477 1.067-1.067zM6.4 17.067v-3.2h4.267v3.2z"></path>
<path d="M19.2 13.867c0-0.589-0.477-1.067-1.067-1.067h-4.267c-0.589 0-1.067 0.477-1.067 1.067v3.2c0 0.589 0.477 1.067 1.067 1.067h4.267c0.589 0 1.067-0.477 1.067-1.067zM13.867 17.067v-3.2h4.267v3.2z"></path>
<path d="M26.667 13.867c0-0.589-0.477-1.067-1.067-1.067h-4.267c-0.589 0-1.067 0.477-1.067 1.067v3.2c0 0.589 0.477 1.067 1.067 1.067h4.267c0.589 0 1.067-0.477 1.067-1.067zM21.333 17.067v-3.2h4.267v3.2z"></path>
<path d="M11.733 21.333v-1.067c0-0.589-0.477-1.067-1.067-1.067h-4.267c-0.589 0-1.067 0.477-1.067 1.067v1.067h1.067v-1.067h4.267v1.067z"></path>
<path d="M19.2 21.333v-1.067c0-0.589-0.477-1.067-1.067-1.067h-4.267c-0.589 0-1.067 0.477-1.067 1.067v1.067h1.067v-1.067h4.267v1.067z"></path>
<path d="M26.667 21.333v-1.067c0-0.589-0.477-1.067-1.067-1.067h-4.267c-0.589 0-1.067 0.477-1.067 1.067v1.067h1.067v-1.067h4.267v1.067z"></path>
</symbol>
<symbol id="icon-gps" viewBox="0 0 32 32">
<path d="M15.729 0.984c-5.75 0-10.428 4.678-10.428 10.428 0 7.227 10.438 19.572 10.438 19.572s10.418-12.701 10.418-19.572c0-5.75-4.678-10.428-10.428-10.428zM18.875 14.466c-0.868 0.867-2.007 1.301-3.146 1.301s-2.279-0.434-3.146-1.301c-1.735-1.735-1.735-4.557 0-6.292 0.84-0.84 1.958-1.303 3.146-1.303s2.306 0.463 3.146 1.303c1.735 1.735 1.735 4.558 0 6.292z"></path>
</symbol>
<symbol id="icon-home-run-filled" viewBox="0 0 32 32">
<path d="M31.137 13.918c-0.001-0.001-0.001-0.001-0.002-0.002l-13.053-13.053c-0.556-0.557-1.296-0.863-2.083-0.863s-1.527 0.306-2.083 0.863l-13.047 13.046c-0.004 0.004-0.009 0.009-0.013 0.013-1.143 1.149-1.141 3.014 0.006 4.16 0.524 0.524 1.215 0.827 1.955 0.859 0.030 0.003 0.060 0.004 0.091 0.004h0.52v9.606c0 1.901 1.547 3.448 3.448 3.448h5.107c0.518 0 0.938-0.42 0.938-0.938v-7.531c0-0.867 0.706-1.573 1.573-1.573h3.012c0.867 0 1.573 0.706 1.573 1.573v7.531c0 0.518 0.42 0.938 0.938 0.938h5.107c1.901 0 3.448-1.547 3.448-3.447v-9.606h0.482c0.787 0 1.526-0.306 2.083-0.863 1.147-1.148 1.148-3.016 0.001-4.165z"></path>
</symbol>
<symbol id="icon-home-run" viewBox="0 0 32 32">
<path d="M31.2 13.856c-0.001-0.001-0.002-0.002-0.002-0.002l-13.053-13.053c-0.556-0.557-1.296-0.863-2.083-0.863s-1.527 0.306-2.083 0.863l-13.047 13.046c-0.004 0.004-0.009 0.009-0.013 0.013-1.143 1.149-1.141 3.014 0.006 4.16 0.524 0.524 1.215 0.827 1.955 0.859 0.030 0.003 0.061 0.004 0.091 0.004h0.52v9.606c0 1.901 1.547 3.448 3.448 3.448h5.107c0.518 0 0.938-0.42 0.938-0.938v-7.531c0-0.867 0.706-1.573 1.573-1.573h3.012c0.867 0 1.573 0.706 1.573 1.573v7.531c0 0.518 0.42 0.938 0.938 0.938h5.107c1.901 0 3.448-1.547 3.448-3.448v-9.606h0.482c0.787 0 1.526-0.306 2.083-0.863 1.147-1.148 1.148-3.016 0.002-4.165zM29.872 16.695c-0.202 0.202-0.471 0.314-0.757 0.314h-1.42c-0.518 0-0.938 0.42-0.938 0.938v10.543c0 0.867-0.706 1.573-1.573 1.573h-4.169v-6.594c0-1.901-1.547-3.448-3.448-3.448h-3.012c-1.901 0-3.448 1.547-3.448 3.448v6.594h-4.169c-0.867 0-1.573-0.706-1.573-1.573v-10.543c0-0.518-0.42-0.938-0.938-0.938h-1.396c-0.015-0.001-0.029-0.002-0.044-0.002-0.279-0.005-0.541-0.116-0.738-0.312-0.417-0.417-0.417-1.097 0-1.515 0 0 0-0 0.001-0.001l13.054-13.053c0.202-0.202 0.471-0.314 0.757-0.314s0.555 0.111 0.757 0.314l13.050 13.050c0.002 0.002 0.004 0.004 0.006 0.006 0.415 0.418 0.415 1.096-0.002 1.513z"></path>
</symbol>
<symbol id="icon-linkedin" viewBox="0 0 32 32">
<path d="M31.992 32v-0.001h0.008v-11.736c0-5.741-1.236-10.164-7.948-10.164-3.227 0-5.392 1.771-6.276 3.449h-0.093v-2.913h-6.364v21.364h6.627v-10.579c0-2.785 0.528-5.479 3.977-5.479 3.399 0 3.449 3.179 3.449 5.657v10.401z"></path>
<path d="M0.528 10.636h6.635v21.364h-6.635z"></path>
<path d="M3.843 0c-2.121 0-3.843 1.721-3.843 3.843s1.721 3.879 3.843 3.879 3.843-1.757 3.843-3.879c-0.001-2.121-1.723-3.843-3.843-3.843z"></path>
</symbol>
<symbol id="icon-logo" viewBox="0 0 32 32">
<path d="M16 0.667c-8.84 0-16 7.040-16 15.723 0 6.948 4.584 12.84 10.94 14.917 0.8 0.148 1.093-0.339 1.093-0.756 0-0.373-0.013-1.363-0.020-2.673-4.451 0.948-5.389-2.109-5.389-2.109-0.728-1.815-1.78-2.3-1.78-2.3-1.449-0.975 0.112-0.955 0.112-0.955 1.607 0.109 2.451 1.62 2.451 1.62 1.427 2.404 3.745 1.709 4.66 1.308 0.144-1.017 0.556-1.709 1.013-2.103-3.553-0.393-7.288-1.745-7.288-7.769 0-1.716 0.62-3.119 1.647-4.219-0.18-0.397-0.72-1.996 0.14-4.161 0 0 1.34-0.421 4.4 1.612 1.28-0.349 2.64-0.523 4-0.531 1.36 0.008 2.72 0.181 4 0.531 3.040-2.033 4.38-1.612 4.38-1.612 0.86 2.165 0.32 3.764 0.16 4.161 1.020 1.1 1.64 2.503 1.64 4.219 0 6.040-3.74 7.369-7.3 7.756 0.56 0.472 1.080 1.436 1.080 2.909 0 2.104-0.020 3.795-0.020 4.305 0 0.412 0.28 0.904 1.1 0.747 6.401-2.064 10.981-7.96 10.981-14.897 0-8.683-7.164-15.723-16-15.723z"></path>
</symbol>
<symbol id="icon-mail" viewBox="0 0 32 32">
<path d="M29.188 3.813h-26.375c-1.549 0-2.813 1.262-2.813 2.813v18.75c0 1.545 1.258 2.813 2.813 2.813h26.375c1.545 0 2.813-1.258 2.813-2.813v-18.75c0-1.545-1.258-2.813-2.813-2.813zM28.799 5.688l-12.739 12.74-12.85-12.74h25.589zM1.875 24.987v-17.982l9.030 8.953-9.030 9.030zM3.201 26.313l9.036-9.036 3.166 3.139c0.367 0.363 0.958 0.362 1.323-0.003l3.087-3.087 8.987 8.987h-25.598zM30.125 24.987l-8.987-8.987 8.987-8.987v17.973z"></path>
</symbol>
<symbol id="icon-menu-filled" viewBox="0 0 32 32">
<path d="M13.539 0h-12.308c-0.68 0-1.231 0.551-1.231 1.231v12.308c0 0.68 0.551 1.231 1.231 1.231h12.308c0.68 0 1.231-0.551 1.231-1.231v-12.308c0-0.68-0.551-1.231-1.231-1.231z"></path>
<path d="M30.769 0h-12.308c-0.68 0-1.231 0.551-1.231 1.231v12.308c0 0.68 0.551 1.231 1.231 1.231h12.308c0.68 0 1.231-0.551 1.231-1.231v-12.308c0-0.68-0.551-1.231-1.231-1.231z"></path>
<path d="M13.539 17.231h-12.308c-0.68 0-1.231 0.551-1.231 1.231v12.308c0 0.68 0.551 1.231 1.231 1.231h12.308c0.68 0 1.231-0.551 1.231-1.231v-12.308c0-0.68-0.551-1.231-1.231-1.231z"></path>
<path d="M30.769 17.231h-12.308c-0.68 0-1.231 0.551-1.231 1.231v12.308c0 0.68 0.551 1.231 1.231 1.231h12.308c0.68 0 1.231-0.551 1.231-1.231v-12.308c0-0.68-0.551-1.231-1.231-1.231z"></path>
</symbol>
<symbol id="icon-menu" viewBox="0 0 32 32">
<path d="M13.511 0h-12.326c-0.652 0-1.185 0.533-1.185 1.185v12.326c0 0.652 0.533 1.185 1.185 1.185h12.326c0.652 0 1.185-0.533 1.185-1.185v-12.326c0-0.652-0.533-1.185-1.185-1.185zM12.326 12.326h-9.956v-9.956h9.956v9.956z"></path>
<path d="M30.815 0h-12.326c-0.652 0-1.185 0.533-1.185 1.185v12.326c0 0.652 0.533 1.185 1.185 1.185h12.326c0.652 0 1.185-0.533 1.185-1.185v-12.326c0-0.652-0.533-1.185-1.185-1.185zM29.63 12.326h-9.956v-9.956h9.956v9.956z"></path>
<path d="M13.511 17.304h-12.326c-0.652 0-1.185 0.533-1.185 1.185v12.326c0 0.652 0.533 1.185 1.185 1.185h12.326c0.652 0 1.185-0.533 1.185-1.185v-12.326c0-0.652-0.533-1.185-1.185-1.185zM12.326 29.63h-9.956v-9.956h9.956v9.956z"></path>
<path d="M30.815 17.304h-12.326c-0.652 0-1.185 0.533-1.185 1.185v12.326c0 0.652 0.533 1.185 1.185 1.185h12.326c0.652 0 1.185-0.533 1.185-1.185v-12.326c0-0.652-0.533-1.185-1.185-1.185zM29.63 29.63h-9.956v-9.956h9.956v9.956z"></path>
</symbol>
<symbol id="icon-phone" viewBox="0 0 32 32">
<path d="M18.667 1.6h-5.333c-0.294 0-0.533 0.239-0.533 0.533s0.239 0.533 0.533 0.533h5.333c0.294 0 0.533-0.239 0.533-0.533s-0.239-0.533-0.533-0.533z"></path>
<path d="M22.4 1.6h-0.533c-0.294 0-0.533 0.239-0.533 0.533s0.239 0.533 0.533 0.533h0.533c0.294 0 0.533-0.239 0.533-0.533s-0.239-0.533-0.533-0.533z"></path>
<path d="M16.662 27.2h-1.324c-0.811 0-1.471 0.66-1.471 1.471v0.258c0 0.811 0.66 1.471 1.471 1.471h1.324c0.811 0 1.471-0.66 1.471-1.471v-0.258c0-0.811-0.66-1.471-1.471-1.471zM17.067 28.929c0 0.223-0.181 0.404-0.404 0.404h-1.324c-0.223 0-0.405-0.181-0.405-0.404v-0.258c0-0.223 0.181-0.405 0.405-0.405h1.324c0.224 0 0.405 0.181 0.405 0.405v0.258z"></path>
<path d="M23.139 0h-14.278c-1.063 0-1.928 0.865-1.928 1.928v28.144c0 1.063 0.865 1.928 1.928 1.928h14.277c1.063 0 1.928-0.865 1.928-1.927v-28.145c0-1.063-0.865-1.928-1.927-1.928zM24 30.072c0 0.475-0.386 0.861-0.861 0.861h-14.278c-0.475 0-0.861-0.387-0.861-0.861v-28.145c0-0.475 0.386-0.861 0.861-0.861h14.277c0.475 0 0.861 0.387 0.861 0.861v28.144z"></path>
<path d="M24.533 3.2h-17.067c-0.294 0-0.533 0.239-0.533 0.533v22.4c0 0.294 0.239 0.533 0.533 0.533h17.067c0.294 0 0.533-0.239 0.533-0.533v-22.4c0-0.294-0.239-0.533-0.533-0.533zM24 25.6h-16v-21.333h16v21.333z"></path>
</symbol>
<symbol id="icon-project" viewBox="0 0 32 32">
<path d="M23.32 7.72c-1.636-2.418-4.356-3.871-7.275-3.885-2.362-0.013-4.589 0.902-6.268 2.573-1.694 1.686-2.627 3.934-2.627 6.331 0 2.211 0.81 4.33 2.281 5.968l1.351 1.832c0.092 0.125 0.234 0.191 0.378 0.191 0.097 0 0.194-0.030 0.278-0.091 0.208-0.154 0.253-0.447 0.099-0.655l-1.364-1.85c-0.009-0.012-0.019-0.024-0.029-0.036-1.325-1.468-2.055-3.371-2.055-5.357 0-2.146 0.835-4.158 2.351-5.666 1.492-1.484 3.465-2.3 5.562-2.3 0.013 0 0.027 0 0.040 0 2.609 0.013 5.040 1.311 6.503 3.473 0.145 0.214 0.436 0.271 0.651 0.126s0.271-0.436 0.126-0.651z"></path>
<path d="M12.773 24.5c0.047 0 0.094 0 0.104 0-0.011 0-0.057-0-0.104-0z"></path>
<path d="M24.27 9.553c-0.092-0.242-0.362-0.364-0.604-0.273s-0.364 0.362-0.273 0.604c0.344 0.909 0.518 1.869 0.518 2.854 0 1.99-0.733 3.895-2.064 5.365-0.011 0.012-0.021 0.024-0.030 0.037l-0.314 0.427c-0.373 0.507-0.745 1.012-1.12 1.521-0.011 0.015-0.021 0.030-0.030 0.046-0.72 1.262-1.235 2.514-1.565 3.428h-5.579c-0.215-0.597-0.455-1.19-0.717-1.765-0.107-0.236-0.385-0.34-0.621-0.232s-0.34 0.385-0.232 0.621c0.231 0.507 0.422 0.98 0.572 1.377h-0.025c-0.259 0-0.469 0.21-0.469 0.469v1.406h-0.219c-0.259 0-0.469 0.21-0.469 0.469v1.875c0 0.259 0.21 0.469 0.469 0.469h0.219v1.406c0 0.259 0.21 0.469 0.469 0.469h0.31l0.329 1.506c0.047 0.215 0.238 0.369 0.458 0.369h5.431c0.22 0 0.411-0.154 0.458-0.369l0.329-1.506h0.31c0.259 0 0.469-0.21 0.469-0.469v-1.406h0.219c0.259 0 0.469-0.21 0.469-0.469v-1.875c0-0.259-0.21-0.469-0.469-0.469h-0.219v-1.406c0-0.259-0.21-0.469-0.469-0.469h-0.024c0.314-0.831 0.766-1.882 1.367-2.94 0.369-0.501 0.736-0.999 1.104-1.499l0.301-0.408c1.477-1.64 2.29-3.761 2.29-5.976-0-1.099-0.195-2.171-0.579-3.186zM18.338 31.063h-4.677l-0.205-0.938h5.086l-0.205 0.938zM19.344 29.188h-6.688v-0.938h6.688v0.938zM20.031 26.375v0.938h-8.063v-0.938h2.021c0.259 0 0.469-0.21 0.469-0.469s-0.21-0.469-0.469-0.469h-1.333v-0.938c0 0 0.001 0 0.002 0 0.012 0 0.064 0 0.114 0-0.050 0-0.102-0-0.114-0h6.682c-0.012 0-0.060 0-0.109 0 0.049 0 0.098-0 0.109-0h0.002v0.938h-3.344c-0.259 0-0.469 0.21-0.469 0.469s0.21 0.469 0.469 0.469h4.031z"></path>
<path d="M19.232 24.5c-0.049 0-0.098 0-0.109 0 0.011 0 0.060-0 0.109-0z"></path>
<path d="M16 0c-0.259 0-0.469 0.21-0.469 0.469v2.144c0 0.259 0.21 0.469 0.469 0.469s0.469-0.21 0.469-0.469v-2.144c0-0.259-0.21-0.469-0.469-0.469z"></path>
<path d="M11.072 3.809l-1.072-1.857c-0.13-0.224-0.416-0.301-0.64-0.172s-0.301 0.416-0.172 0.64l1.072 1.857c0.087 0.15 0.244 0.234 0.406 0.234 0.079 0 0.16-0.020 0.234-0.063 0.224-0.129 0.301-0.416 0.172-0.64z"></path>
<path d="M6.995 7.535l-1.857-1.072c-0.224-0.13-0.511-0.053-0.64 0.172s-0.053 0.511 0.172 0.64l1.857 1.072c0.074 0.043 0.154 0.063 0.234 0.063 0.162 0 0.32-0.084 0.406-0.234 0.129-0.224 0.053-0.511-0.172-0.64z"></path>
<path d="M27.33 19.275l-1.857-1.072c-0.224-0.13-0.511-0.053-0.64 0.172s-0.053 0.511 0.172 0.64l1.857 1.072c0.074 0.043 0.154 0.063 0.234 0.063 0.162 0 0.32-0.084 0.406-0.234 0.13-0.224 0.053-0.511-0.172-0.64z"></path>
<path d="M5.332 12.794h-2.144c-0.259 0-0.469 0.21-0.469 0.469s0.21 0.469 0.469 0.469h2.144c0.259 0 0.469-0.21 0.469-0.469s-0.21-0.469-0.469-0.469z"></path>
<path d="M28.813 12.794h-2.144c-0.259 0-0.469 0.21-0.469 0.469s0.21 0.469 0.469 0.469h2.144c0.259 0 0.469-0.21 0.469-0.469s-0.21-0.469-0.469-0.469z"></path>
<path d="M7.167 18.348c-0.129-0.224-0.416-0.301-0.64-0.172l-1.857 1.072c-0.224 0.129-0.301 0.416-0.172 0.64 0.087 0.15 0.244 0.234 0.406 0.234 0.080 0 0.16-0.020 0.234-0.063l1.857-1.072c0.224-0.129 0.301-0.416 0.172-0.64z"></path>
<path d="M27.502 6.607c-0.129-0.224-0.416-0.301-0.64-0.172l-1.857 1.072c-0.224 0.129-0.301 0.416-0.172 0.64 0.087 0.15 0.244 0.234 0.406 0.234 0.079 0 0.16-0.020 0.234-0.063l1.857-1.072c0.224-0.129 0.301-0.416 0.172-0.64z"></path>
<path d="M22.641 1.733c-0.224-0.129-0.511-0.053-0.64 0.172l-1.072 1.857c-0.13 0.224-0.053 0.511 0.172 0.64 0.074 0.043 0.154 0.063 0.234 0.063 0.162 0 0.32-0.084 0.406-0.234l1.072-1.857c0.129-0.224 0.053-0.511-0.172-0.64z"></path>
<path d="M13.857 14.801l-2.175-1.761 2.175-1.761c0.201-0.163 0.232-0.458 0.069-0.659s-0.458-0.232-0.659-0.069l-2.625 2.125c-0.11 0.089-0.174 0.223-0.174 0.364s0.064 0.275 0.174 0.364l2.625 2.125c0.087 0.070 0.191 0.104 0.295 0.104 0.137 0 0.272-0.059 0.365-0.174 0.163-0.201 0.132-0.496-0.069-0.659z"></path>
<path d="M21.357 12.676l-2.625-2.125c-0.201-0.163-0.496-0.132-0.659 0.069s-0.132 0.496 0.069 0.659l2.175 1.761-2.175 1.761c-0.201 0.163-0.232 0.458-0.069 0.659 0.093 0.114 0.228 0.174 0.365 0.174 0.104 0 0.208-0.034 0.295-0.104l2.625-2.125c0.11-0.089 0.174-0.223 0.174-0.364s-0.064-0.275-0.174-0.364z"></path>
<path d="M17.618 9.171c-0.239-0.1-0.513 0.013-0.613 0.252l-2.875 6.875c-0.1 0.239 0.013 0.513 0.252 0.613 0.059 0.025 0.12 0.036 0.181 0.036 0.183 0 0.357-0.108 0.433-0.288l2.875-6.875c0.1-0.239-0.013-0.513-0.252-0.613z"></path>
</symbol>
<symbol id="icon-send" viewBox="0 0 32 32">
<path d="M31.978 3.23c0.156-0.726-0.556-1.339-1.25-1.073l-30.125 11.5c-0.363 0.138-0.602 0.486-0.603 0.874s0.238 0.737 0.6 0.876l8.463 3.268v10.294c0 0.434 0.298 0.812 0.721 0.912 0.42 0.1 0.857-0.1 1.054-0.49l3.5-6.945 8.541 6.339c0.52 0.386 1.266 0.14 1.455-0.479 7.975-26.147 7.63-25.010 7.644-25.076zM24.542 6.524l-14.675 10.451-6.314-2.439zM10.937 18.515l12.792-9.11c-11.007 11.612-10.432 11.001-10.48 11.065-0.071 0.096 0.124-0.278-2.311 4.555zM22.928 26.487l-7.518-5.58 13.594-14.341z"></path>
</symbol>
<symbol id="icon-user-filled" viewBox="0 0 32 32">
<path d="M15.772 15.415c2.118 0 3.951-0.76 5.45-2.258s2.258-3.332 2.258-5.449c0-2.117-0.76-3.951-2.258-5.449s-3.332-2.258-5.449-2.258c-2.118 0-3.951 0.76-5.449 2.258s-2.258 3.332-2.258 5.449c0 2.118 0.76 3.951 2.258 5.45s3.332 2.258 5.449 2.258z"></path>
<path d="M29.258 24.606c-0.043-0.624-0.131-1.304-0.259-2.022-0.13-0.724-0.297-1.408-0.497-2.033-0.207-0.646-0.488-1.284-0.836-1.896-0.361-0.635-0.785-1.188-1.26-1.642-0.497-0.476-1.106-0.858-1.81-1.137-0.702-0.278-1.479-0.418-2.311-0.418-0.327 0-0.643 0.134-1.253 0.531-0.375 0.245-0.815 0.528-1.305 0.841-0.419 0.267-0.987 0.517-1.688 0.744-0.684 0.221-1.379 0.334-2.065 0.334s-1.38-0.112-2.065-0.334c-0.701-0.226-1.269-0.477-1.687-0.744-0.486-0.31-0.925-0.593-1.306-0.842-0.609-0.397-0.926-0.531-1.252-0.531-0.832 0-1.609 0.141-2.311 0.419-0.704 0.279-1.313 0.661-1.811 1.137-0.475 0.455-0.899 1.008-1.26 1.642-0.347 0.612-0.629 1.25-0.836 1.896-0.2 0.625-0.367 1.309-0.497 2.033-0.129 0.717-0.216 1.398-0.259 2.023-0.042 0.612-0.064 1.248-0.064 1.89 0 1.67 0.531 3.023 1.578 4.020 1.034 0.984 2.403 1.483 4.067 1.483h15.408c1.664 0 3.032-0.499 4.066-1.483 1.047-0.997 1.578-2.349 1.578-4.020-0-0.645-0.022-1.281-0.065-1.89z"></path>
</symbol>
<symbol id="icon-user" viewBox="0 0 32 32">
<path d="M15.772 15.415c2.118 0 3.951-0.76 5.45-2.258s2.258-3.332 2.258-5.449c0-2.117-0.76-3.951-2.258-5.449s-3.332-2.258-5.449-2.258c-2.118 0-3.951 0.76-5.449 2.258s-2.258 3.332-2.258 5.449c0 2.118 0.76 3.951 2.258 5.45s3.332 2.258 5.449 2.258zM11.649 3.584c1.15-1.15 2.498-1.708 4.123-1.708s2.974 0.559 4.124 1.708c1.15 1.15 1.709 2.499 1.709 4.123s-0.559 2.974-1.709 4.124c-1.15 1.15-2.499 1.709-4.124 1.709s-2.973-0.559-4.123-1.709c-1.15-1.15-1.709-2.499-1.709-4.124s0.559-2.973 1.709-4.123z"></path>
<path d="M29.258 24.606c-0.043-0.624-0.131-1.304-0.259-2.022-0.13-0.724-0.297-1.408-0.497-2.033-0.207-0.646-0.488-1.284-0.836-1.896-0.361-0.635-0.784-1.188-1.26-1.642-0.497-0.476-1.106-0.858-1.81-1.137-0.702-0.278-1.479-0.418-2.311-0.418-0.327 0-0.643 0.134-1.253 0.531-0.375 0.245-0.815 0.528-1.305 0.841-0.419 0.267-0.987 0.517-1.688 0.744-0.684 0.221-1.379 0.334-2.065 0.334s-1.38-0.112-2.065-0.334c-0.701-0.226-1.269-0.477-1.687-0.744-0.486-0.31-0.925-0.593-1.306-0.842-0.61-0.397-0.926-0.531-1.252-0.531-0.832 0-1.609 0.141-2.311 0.419-0.704 0.279-1.313 0.661-1.811 1.137-0.476 0.455-0.899 1.008-1.26 1.642-0.347 0.612-0.629 1.25-0.836 1.896-0.2 0.625-0.367 1.309-0.497 2.033-0.129 0.717-0.216 1.398-0.259 2.023-0.042 0.611-0.064 1.247-0.064 1.89 0 1.67 0.531 3.023 1.578 4.020 1.034 0.984 2.402 1.483 4.067 1.483h15.408c1.664 0 3.032-0.499 4.066-1.483 1.047-0.997 1.578-2.349 1.578-4.020-0-0.645-0.022-1.281-0.065-1.89zM26.451 29.158c-0.683 0.65-1.591 0.967-2.774 0.967h-15.408c-1.183 0-2.091-0.316-2.774-0.966-0.67-0.638-0.996-1.509-0.996-2.662 0-0.6 0.020-1.192 0.059-1.76 0.039-0.558 0.117-1.17 0.234-1.821 0.115-0.643 0.262-1.246 0.437-1.792 0.168-0.524 0.396-1.042 0.68-1.542 0.271-0.476 0.582-0.885 0.926-1.214 0.322-0.308 0.727-0.56 1.204-0.749 0.442-0.175 0.938-0.27 1.477-0.285 0.066 0.035 0.183 0.102 0.372 0.225 0.386 0.251 0.83 0.538 1.321 0.852 0.554 0.353 1.267 0.672 2.119 0.947 0.871 0.282 1.76 0.425 2.642 0.425s1.771-0.143 2.642-0.425c0.853-0.276 1.566-0.594 2.121-0.948 0.503-0.321 0.935-0.6 1.32-0.851 0.189-0.123 0.306-0.19 0.372-0.225 0.539 0.014 1.035 0.11 1.477 0.285 0.477 0.189 0.883 0.441 1.204 0.749 0.344 0.329 0.655 0.737 0.926 1.214 0.284 0.499 0.513 1.018 0.68 1.541 0.175 0.547 0.322 1.15 0.438 1.792 0.117 0.652 0.196 1.265 0.234 1.822v0c0.040 0.566 0.060 1.158 0.060 1.759-0 1.153-0.326 2.024-0.996 2.661z"></path>
</symbol>
<symbol id="icon-xing" viewBox="0 0 32 32">
<path d="M31 0h-7.476l-11.106 19.454 7.156 12.546h7.476l-7.156-12.546z"></path>
<path d="M9.326 6h-7.048l4.078 7.182-5.356 8.818h7.048l5.356-8.818z"></path>
</symbol>
</defs>
</svg>
